<svg width="376" height="222" viewBox="0 0 376 222" fill="none" xmlns="http://www.w3.org/2000/svg">
<path d="M218.592 249.253C218.033 227.658 204.496 210.03 188.093 201.088C163.501 187.681 134.583 196.129 111.089 179.423C96.6492 169.158 85.7291 152.896 80.5598 133.963C73.9404 109.735 75.3293 79.278 55.5706 63.7127C42.4197 53.3511 23.2043 51.7441 13.5392 53.3932V249.253H218.592Z" fill="url(#paint0_linear_11_374)"/>
<path d="M70.6996 98.3177C70.8182 108.668 67.7304 118.742 65.2625 128.794C62.7945 138.846 60.9312 149.441 63.4871 159.473C74.1317 201.256 143.628 185.381 169.78 211.048C183.712 224.723 186.161 242.707 188.908 261.253L-61 195.934L-19.8334 7.06833C-7.1876 52.4366 70.0453 41.3863 70.6996 98.3215V98.3177Z" fill="url(#paint1_linear_11_374)"/>
<path d="M188.032 260.273C185.334 242.029 182.759 224.803 169.271 211.564C163.785 206.177 155.941 202.201 144.592 199.049C137.269 197.013 129.191 195.513 121.382 194.063C113.496 192.597 105.342 191.086 97.8774 189.012C84.0455 185.171 67.5544 178.36 62.7869 159.653C60.1697 149.383 62.0943 138.674 64.5584 128.626C64.9487 127.034 65.3543 125.446 65.7599 123.854C67.8796 115.544 70.0721 106.954 69.9764 98.333C69.8157 84.4359 65.2089 73.8256 55.4711 64.9409C46.8544 57.0779 35.1996 51.614 23.9275 46.3299C5.75658 37.8126 -13.0074 29.0121 -19.7071 9.89212L-60.1429 195.41L188.035 260.273H188.032Z" fill="url(#paint2_linear_11_374)"/>
<path d="M-12.5137 0.823822C-3.90849 47.1296 73.9978 42.9168 69.6397 99.6875C68.8477 110.007 64.8837 119.772 61.5434 129.567C58.1992 139.362 55.4137 149.754 57.0781 159.971C64.0075 202.527 134.629 192.831 158.42 220.698C171.097 235.548 171.954 253.676 173.059 272.391H-12.5137V0.823822Z" fill="url(#paint3_linear_11_374)"/>
<path d="M375.992 294.358C322.896 297.331 271.004 277.847 250.277 227.225C242.361 207.891 234.915 189.085 216.193 178C181.053 157.2 110.079 192.907 87.4203 150.531C81.9794 140.361 81.1721 128.396 81.1606 116.86C81.1529 105.324 81.8072 93.5998 78.9184 82.4347C63.0356 20.996 -17.5912 53.5501 -43.3724 7.82593" stroke="url(#paint4_linear_11_374)" stroke-width="0.75" stroke-miterlimit="10"/>
<path d="M371.145 300.981C318.029 303.097 266.477 282.783 246.581 231.851C238.982 212.398 231.842 193.481 213.308 182.102C178.52 160.744 107.011 195.283 85.048 152.567C79.7755 142.312 79.1594 130.344 79.3354 118.815C79.5114 107.286 80.357 95.578 77.6519 84.3708C62.7678 22.7102 -18.3449 53.9404 -43.3724 7.82593" stroke="url(#paint5_linear_11_374)" stroke-width="0.75" stroke-miterlimit="10"/>
<path d="M366.297 307.604C313.162 308.859 261.951 287.719 242.885 236.481C235.603 216.91 228.774 197.882 210.427 186.208C175.994 164.294 103.942 197.667 82.6758 154.606C77.5715 144.268 77.1468 132.291 77.5103 120.77C77.8738 109.246 78.9069 97.5562 76.3854 86.3069C62.4999 24.4205 -19.0949 54.3345 -43.3724 7.82593" stroke="url(#paint6_linear_11_374)" stroke-width="0.75" stroke-miterlimit="10"/>
<path d="M361.449 314.231C308.291 314.625 257.424 292.659 239.185 241.111C232.217 221.421 225.697 202.286 207.538 190.309C173.461 167.837 100.87 200.047 80.2997 156.642C75.36 146.223 75.1304 134.239 75.6814 122.722C76.2324 111.205 77.4568 99.5306 75.1113 88.2392C62.2321 26.1347 -19.8486 54.7286 -43.3724 7.82593" stroke="url(#paint7_linear_11_374)" stroke-width="0.75" stroke-miterlimit="10"/>
<path d="M356.601 320.855C303.424 320.392 252.898 297.595 235.489 245.741C228.839 225.936 222.625 206.686 204.657 194.415C170.932 171.384 97.8048 202.431 77.9274 158.681C73.156 148.178 73.1216 136.19 73.8563 124.677C74.5909 113.167 76.0066 101.509 73.8448 90.1753C61.9604 27.8451 -20.6024 55.1189 -43.3724 7.82593" stroke="url(#paint8_linear_11_374)" stroke-width="0.75" stroke-miterlimit="10"/>
<path style="mix-blend-mode:multiply" d="M95.0193 222.55C93.6954 213.16 87.4854 205.018 79.917 199.301C68.2891 190.52 51.3617 188.499 44.111 174.641C38.4252 163.77 42.2093 150.596 41.5053 138.348C40.2005 115.685 22.9212 95.6201 -0.380676 94.4263V222.55H95.0231H95.0193Z" fill="url(#paint9_linear_11_374)"/>
<g opacity="0.8">
<path opacity="0.6" d="M67.2888 186.204C76.9244 184.471 82.3934 170.048 79.5041 153.989C76.6149 137.931 66.4614 126.319 56.8258 128.053C47.1901 129.786 41.7211 144.21 44.6104 160.268C47.4997 176.326 57.6532 187.938 67.2888 186.204Z" fill="url(#paint10_radial_11_374)"/>
<path opacity="0.8" d="M65.1266 174.188C69.1968 173.455 71.1221 165.224 69.4269 155.803C67.7317 146.381 63.058 139.337 58.9879 140.069C54.9177 140.802 52.9924 149.033 54.6876 158.455C56.3828 167.876 61.0565 174.92 65.1266 174.188Z" fill="url(#paint11_radial_11_374)"/>
</g>
<g opacity="0.8">
<path opacity="0.6" d="M167.185 220.263C171.094 211.287 162.136 198.73 147.176 192.216C132.217 185.702 116.922 187.698 113.013 196.675C109.105 205.651 118.063 218.208 133.022 224.722C147.981 231.236 163.277 229.24 167.185 220.263Z" fill="url(#paint12_radial_11_374)"/>
<path opacity="0.8" d="M155.991 215.389C157.642 211.597 151.865 205.425 143.089 201.604C134.312 197.782 125.859 197.758 124.208 201.549C122.557 205.341 128.333 211.513 137.11 215.335C145.887 219.156 154.34 219.181 155.991 215.389Z" fill="url(#paint13_radial_11_374)"/>
</g>
<defs>
<linearGradient id="paint0_linear_11_374" x1="229.81" y1="208.897" x2="-11.0704" y2="142.005" gradientUnits="userSpaceOnUse">
<stop offset="0.08" stop-color="#ECE4D3"/>
<stop offset="0.83" stop-color="#D7C38F"/>
</linearGradient>
<linearGradient id="paint1_linear_11_374" x1="124.342" y1="298.338" x2="-66.7027" y2="37.7469" gradientUnits="userSpaceOnUse">
<stop stop-color="#C8A558"/>
<stop offset="0.03" stop-color="#D1B26A"/>
<stop offset="0.11" stop-color="#E9D69D"/>
<stop offset="0.17" stop-color="#F9ECBD"/>
<stop offset="0.2" stop-color="#FFF5C9"/>
<stop offset="0.23" stop-color="#F8EBBD"/>
<stop offset="0.28" stop-color="#E7D39D"/>
<stop offset="0.34" stop-color="#CCAB6B"/>
<stop offset="0.35" stop-color="#C8A563"/>
<stop offset="0.41" stop-color="#E4CE97"/>
<stop offset="0.47" stop-color="#FFF5C9"/>
<stop offset="0.6" stop-color="#E8D49A"/>
<stop offset="0.77" stop-color="#C8A558"/>
</linearGradient>
<linearGradient id="paint2_linear_11_374" x1="123.734" y1="297.274" x2="-65.1828" y2="39.5878" gradientUnits="userSpaceOnUse">
<stop stop-color="#7B592F"/>
<stop offset="0.06" stop-color="#A88547"/>
<stop offset="0.11" stop-color="#C8A558"/>
<stop offset="0.12" stop-color="#D1B26A"/>
<stop offset="0.16" stop-color="#E9D69D"/>
<stop offset="0.19" stop-color="#F9ECBD"/>
<stop offset="0.2" stop-color="#FFF5C9"/>
<stop offset="0.22" stop-color="#F8EBBD"/>
<stop offset="0.24" stop-color="#E7D39D"/>
<stop offset="0.27" stop-color="#CCAB6B"/>
<stop offset="0.28" stop-color="#C09D5D"/>
<stop offset="0.33" stop-color="#8F6D3C"/>
<stop offset="0.35" stop-color="#9D7A42"/>
<stop offset="0.39" stop-color="#C29F55"/>
<stop offset="0.4" stop-color="#C8A558"/>
<stop offset="0.41" stop-color="#D6BA75"/>
<stop offset="0.44" stop-color="#ECD9A2"/>
<stop offset="0.46" stop-color="#F9EDBE"/>
<stop offset="0.47" stop-color="#FFF5C9"/>
<stop offset="0.48" stop-color="#F9ECBD"/>
<stop offset="0.51" stop-color="#E9D69D"/>
<stop offset="0.55" stop-color="#D1B26B"/>
<stop offset="0.57" stop-color="#C8A558"/>
</linearGradient>
<linearGradient id="paint3_linear_11_374" x1="114.45" y1="310.186" x2="-63.6738" y2="33.8147" gradientUnits="userSpaceOnUse">
<stop offset="0.32" stop-color="#D7C38F"/>
<stop offset="0.71" stop-color="#F6EFE0"/>
<stop offset="0.75" stop-color="#F4ECDB"/>
<stop offset="0.81" stop-color="#EFE4CC"/>
<stop offset="0.86" stop-color="#E7D7B5"/>
<stop offset="0.92" stop-color="#DCC594"/>
<stop offset="0.98" stop-color="#CEAF6A"/>
<stop offset="1" stop-color="#C8A558"/>
</linearGradient>
<linearGradient id="paint4_linear_11_374" x1="278.53" y1="349.625" x2="54.1472" y2="-47.254" gradientUnits="userSpaceOnUse">
<stop stop-color="#7B592F"/>
<stop offset="0.02" stop-color="#836133"/>
<stop offset="0.06" stop-color="#99763F"/>
<stop offset="0.1" stop-color="#BD9A52"/>
<stop offset="0.11" stop-color="#C8A558"/>
<stop offset="0.12" stop-color="#D1B26A"/>
<stop offset="0.16" stop-color="#E9D69D"/>
<stop offset="0.19" stop-color="#F9ECBD"/>
<stop offset="0.2" stop-color="#FFF5C9"/>
<stop offset="0.22" stop-color="#F8EBBD"/>
<stop offset="0.26" stop-color="#E7D39D"/>
<stop offset="0.31" stop-color="#C8A563"/>
<stop offset="0.33" stop-color="#C09D5D"/>
<stop offset="0.43" stop-color="#8F6D3C"/>
<stop offset="0.47" stop-color="#9D7A42"/>
<stop offset="0.54" stop-color="#C8A558"/>
<stop offset="0.64" stop-color="#D6BA75"/>
<stop offset="0.8" stop-color="#ECD9A2"/>
<stop offset="0.93" stop-color="#F9EDBE"/>
<stop offset="1" stop-color="#FFF5C9"/>
</linearGradient>
<linearGradient id="paint5_linear_11_374" x1="276.776" y1="354.597" x2="50.6595" y2="-45.4116" gradientUnits="userSpaceOnUse">
<stop stop-color="#7B592F"/>
<stop offset="0.02" stop-color="#836133"/>
<stop offset="0.06" stop-color="#99763F"/>
<stop offset="0.1" stop-color="#BD9A52"/>
<stop offset="0.11" stop-color="#C8A558"/>
<stop offset="0.12" stop-color="#D1B26A"/>
<stop offset="0.16" stop-color="#E9D69D"/>
<stop offset="0.19" stop-color="#F9ECBD"/>
<stop offset="0.2" stop-color="#FFF5C9"/>
<stop offset="0.22" stop-color="#F8EBBD"/>
<stop offset="0.26" stop-color="#E7D39D"/>
<stop offset="0.31" stop-color="#C8A563"/>
<stop offset="0.33" stop-color="#C09D5D"/>
<stop offset="0.43" stop-color="#8F6D3C"/>
<stop offset="0.47" stop-color="#9D7A42"/>
<stop offset="0.54" stop-color="#C8A558"/>
<stop offset="0.64" stop-color="#D6BA75"/>
<stop offset="0.8" stop-color="#ECD9A2"/>
<stop offset="0.93" stop-color="#F9EDBE"/>
<stop offset="1" stop-color="#FFF5C9"/>
</linearGradient>
<linearGradient id="paint6_linear_11_374" x1="275.12" y1="359.459" x2="47.3436" y2="-43.5442" gradientUnits="userSpaceOnUse">
<stop stop-color="#7B592F"/>
<stop offset="0.02" stop-color="#836133"/>
<stop offset="0.06" stop-color="#99763F"/>
<stop offset="0.1" stop-color="#BD9A52"/>
<stop offset="0.11" stop-color="#C8A558"/>
<stop offset="0.12" stop-color="#D1B26A"/>
<stop offset="0.16" stop-color="#E9D69D"/>
<stop offset="0.19" stop-color="#F9ECBD"/>
<stop offset="0.2" stop-color="#FFF5C9"/>
<stop offset="0.22" stop-color="#F8EBBD"/>
<stop offset="0.26" stop-color="#E7D39D"/>
<stop offset="0.31" stop-color="#C8A563"/>
<stop offset="0.33" stop-color="#C09D5D"/>
<stop offset="0.43" stop-color="#8F6D3C"/>
<stop offset="0.47" stop-color="#9D7A42"/>
<stop offset="0.54" stop-color="#C8A558"/>
<stop offset="0.64" stop-color="#D6BA75"/>
<stop offset="0.8" stop-color="#ECD9A2"/>
<stop offset="0.93" stop-color="#F9EDBE"/>
<stop offset="1" stop-color="#FFF5C9"/>
</linearGradient>
<linearGradient id="paint7_linear_11_374" x1="273.596" y1="364.222" x2="44.1306" y2="-41.663" gradientUnits="userSpaceOnUse">
<stop stop-color="#7B592F"/>
<stop offset="0.02" stop-color="#836133"/>
<stop offset="0.06" stop-color="#99763F"/>
<stop offset="0.1" stop-color="#BD9A52"/>
<stop offset="0.11" stop-color="#C8A558"/>
<stop offset="0.12" stop-color="#D1B26A"/>
<stop offset="0.16" stop-color="#E9D69D"/>
<stop offset="0.19" stop-color="#F9ECBD"/>
<stop offset="0.2" stop-color="#FFF5C9"/>
<stop offset="0.22" stop-color="#F8EBBD"/>
<stop offset="0.26" stop-color="#E7D39D"/>
<stop offset="0.31" stop-color="#C8A563"/>
<stop offset="0.33" stop-color="#C09D5D"/>
<stop offset="0.43" stop-color="#8F6D3C"/>
<stop offset="0.47" stop-color="#9D7A42"/>
<stop offset="0.54" stop-color="#C8A558"/>
<stop offset="0.64" stop-color="#D6BA75"/>
<stop offset="0.8" stop-color="#ECD9A2"/>
<stop offset="0.93" stop-color="#F9EDBE"/>
<stop offset="1" stop-color="#FFF5C9"/>
</linearGradient>
<linearGradient id="paint8_linear_11_374" x1="272.059" y1="368.787" x2="41.0447" y2="-39.9104" gradientUnits="userSpaceOnUse">
<stop stop-color="#7B592F"/>
<stop offset="0.02" stop-color="#836133"/>
<stop offset="0.06" stop-color="#99763F"/>
<stop offset="0.1" stop-color="#BD9A52"/>
<stop offset="0.11" stop-color="#C8A558"/>
<stop offset="0.12" stop-color="#D1B26A"/>
<stop offset="0.16" stop-color="#E9D69D"/>
<stop offset="0.19" stop-color="#F9ECBD"/>
<stop offset="0.2" stop-color="#FFF5C9"/>
<stop offset="0.22" stop-color="#F8EBBD"/>
<stop offset="0.26" stop-color="#E7D39D"/>
<stop offset="0.31" stop-color="#C8A563"/>
<stop offset="0.33" stop-color="#C09D5D"/>
<stop offset="0.43" stop-color="#8F6D3C"/>
<stop offset="0.47" stop-color="#9D7A42"/>
<stop offset="0.54" stop-color="#C8A558"/>
<stop offset="0.64" stop-color="#D6BA75"/>
<stop offset="0.8" stop-color="#ECD9A2"/>
<stop offset="0.93" stop-color="#F9EDBE"/>
<stop offset="1" stop-color="#FFF5C9"/>
</linearGradient>
<linearGradient id="paint9_linear_11_374" x1="104.839" y1="187.213" x2="-16.7721" y2="153.442" gradientUnits="userSpaceOnUse">
<stop stop-color="#D7C38F"/>
<stop offset="1" stop-color="#F6EFE0"/>
</linearGradient>
<radialGradient id="paint10_radial_11_374" cx="0" cy="0" r="1" gradientUnits="userSpaceOnUse" gradientTransform="translate(62.2044 157.925) rotate(169.8) scale(17.727 29.6044)">
<stop stop-color="white"/>
<stop offset="0.12" stop-color="#FFFDF6" stop-opacity="0.84"/>
<stop offset="0.37" stop-color="#FFFAE6" stop-opacity="0.55"/>
<stop offset="0.59" stop-color="#FFF8D9" stop-opacity="0.31"/>
<stop offset="0.77" stop-color="#FFF6D0" stop-opacity="0.14"/>
<stop offset="0.91" stop-color="#FFF5CB" stop-opacity="0.04"/>
<stop offset="1" stop-color="#FFF5C9" stop-opacity="0"/>
</radialGradient>
<radialGradient id="paint11_radial_11_374" cx="0" cy="0" r="1" gradientUnits="userSpaceOnUse" gradientTransform="translate(61.793 155.746) rotate(169.8) scale(7.48798 17.2974)">
<stop offset="0.05" stop-color="#FFFEFE" stop-opacity="0.99"/>
<stop offset="0.26" stop-color="#FFFBEE" stop-opacity="0.69"/>
<stop offset="0.46" stop-color="#FFF9E1" stop-opacity="0.45"/>
<stop offset="0.64" stop-color="#FFF7D6" stop-opacity="0.25"/>
<stop offset="0.79" stop-color="#FFF6CF" stop-opacity="0.12"/>
<stop offset="0.92" stop-color="#FFF5CA" stop-opacity="0.03"/>
<stop offset="1" stop-color="#FFF5C9" stop-opacity="0"/>
</radialGradient>
<radialGradient id="paint12_radial_11_374" cx="0" cy="0" r="1" gradientUnits="userSpaceOnUse" gradientTransform="translate(140.037 208.434) rotate(113.53) scale(17.7272 29.6042)">
<stop stop-color="white"/>
<stop offset="0.12" stop-color="#FFFDF6" stop-opacity="0.84"/>
<stop offset="0.37" stop-color="#FFFAE6" stop-opacity="0.55"/>
<stop offset="0.59" stop-color="#FFF8D9" stop-opacity="0.31"/>
<stop offset="0.77" stop-color="#FFF6D0" stop-opacity="0.14"/>
<stop offset="0.91" stop-color="#FFF5CB" stop-opacity="0.04"/>
<stop offset="1" stop-color="#FFF5C9" stop-opacity="0"/>
</radialGradient>
<radialGradient id="paint13_radial_11_374" cx="0" cy="0" r="1" gradientUnits="userSpaceOnUse" gradientTransform="translate(139.546 208.224) rotate(113.53) scale(7.48803 17.2972)">
<stop offset="0.05" stop-color="#FFFEFE" stop-opacity="0.99"/>
<stop offset="0.26" stop-color="#FFFBEE" stop-opacity="0.69"/>
<stop offset="0.46" stop-color="#FFF9E1" stop-opacity="0.45"/>
<stop offset="0.64" stop-color="#FFF7D6" stop-opacity="0.25"/>
<stop offset="0.79" stop-color="#FFF6CF" stop-opacity="0.12"/>
<stop offset="0.92" stop-color="#FFF5CA" stop-opacity="0.03"/>
<stop offset="1" stop-color="#FFF5C9" stop-opacity="0"/>
</radialGradient>
</defs>
</svg>
